<svg viewBox="0 0 64 64" xmlns="http://www.w3.org/2000/svg">
   <path
      d="M32 53.583c12.806 0 23.181-10.384 23.181-23.182V33.6C55.181 46.396 44.806 56.78 32 56.78 19.202 56.78 8.819 46.396 8.819 33.6V30.4C8.819 43.2 19.202 53.583 32 53.583z" />
   <path
      d="M55.181 30.401C55.181 43.2 44.806 53.583 32 53.583c-12.798 0-23.181-10.384-23.181-23.182C8.819 17.596 19.202 7.22 32 7.22c12.806 0 23.181 10.376 23.181 23.181zm-2.797 0c0-11.255-9.121-20.383-20.384-20.383-11.255 0-20.384 9.128-20.384 20.383 0 11.255 9.129 20.384 20.384 20.384 11.263 0 20.384-9.129 20.384-20.384z" />
   <path
      d="M32 10.018c11.263 0 20.384 9.128 20.384 20.383 0 11.255-9.121 20.384-20.384 20.384-11.255 0-20.384-9.129-20.384-20.384S20.745 10.018 32 10.018z" />
   <g fill="#ebebec">
      <path
         d="M32 54.382c-13.223 0-23.98-10.758-23.98-23.98C8.02 17.177 18.776 6.42 32 6.42S55.98 17.178 55.98 30.4 45.224 54.382 32 54.382zm0-46.363C19.659 8.02 9.618 18.06 9.618 30.401c0 12.342 10.04 22.382 22.382 22.382 12.341 0 22.382-10.04 22.382-22.382C54.382 18.06 44.342 8.02 32 8.02z" />
      <path
         d="M8.819 34.398a.799.799 0 01-.8-.8v-3.197a.799.799 0 111.599 0V33.6c0 .442-.357.8-.8.8zM55.181 34.398a.799.799 0 01-.799-.8v-3.197a.799.799 0 111.599 0V33.6c0 .442-.358.8-.8.8z" />
      <path
         d="M32 57.58c-13.223 0-23.98-10.758-23.98-23.981a.799.799 0 111.598 0C9.618 45.94 19.658 55.98 32 55.98c12.341 0 22.382-10.041 22.382-22.382a.799.799 0 111.599 0c0 13.223-10.758 23.98-23.981 23.98z" />
      <path
         d="M32 51.584c-11.68 0-21.183-9.502-21.183-21.183 0-11.68 9.503-21.183 21.183-21.183s21.183 9.503 21.183 21.183S43.68 51.584 32 51.584zm0-40.767c-10.8 0-19.584 8.785-19.584 19.584 0 10.8 8.785 19.585 19.584 19.585 10.8 0 19.584-8.785 19.584-19.585 0-10.799-8.785-19.584-19.584-19.584z" />
   </g>
</svg>