<svg viewBox="0 0 64 64" xmlns="http://www.w3.org/2000/svg">
   <path
      d="M32 53.583c12.806 0 23.181-10.384 23.181-23.182V33.6C55.181 46.396 44.806 56.78 32 56.78 19.202 56.78 8.819 46.396 8.819 33.6V30.4C8.819 43.2 19.202 53.583 32 53.583z" />
   <path
      d="M55.181 30.401C55.181 43.2 44.806 53.583 32 53.583c-12.798 0-23.181-10.384-23.181-23.182C8.819 17.596 19.202 7.22 32 7.22c12.806 0 23.181 10.376 23.181 23.181zm-2.797 0c0-11.255-9.121-20.383-20.384-20.383-11.255 0-20.384 9.128-20.384 20.383 0 11.255 9.129 20.384 20.384 20.384 11.263 0 20.384-9.129 20.384-20.384z" />
   <path
      d="M32 10.018c11.263 0 20.384 9.128 20.384 20.383 0 11.255-9.121 20.384-20.384 20.384-11.255 0-20.384-9.129-20.384-20.384S20.745 10.018 32 10.018z" />
   <g fill="#ebebec">
      <path
         d="M32 54.382c-13.223 0-23.98-10.758-23.98-23.98C8.02 17.177 18.776 6.42 32 6.42S55.98 17.178 55.98 30.4 45.224 54.382 32 54.382zm0-46.363C19.659 8.02 9.618 18.06 9.618 30.401c0 12.342 10.04 22.382 22.382 22.382 12.341 0 22.382-10.04 22.382-22.382C54.382 18.06 44.342 8.02 32 8.02z" />
      <path
         d="M8.819 34.398a.799.799 0 01-.8-.8v-3.197a.799.799 0 111.599 0V33.6c0 .442-.357.8-.8.8zM55.181 34.398a.799.799 0 01-.799-.8v-3.197a.799.799 0 111.599 0V33.6c0 .442-.358.8-.8.8z" />
      <path
         d="M32 57.58c-13.223 0-23.98-10.758-23.98-23.981a.799.799 0 111.598 0C9.618 45.94 19.658 55.98 32 55.98c12.341 0 22.382-10.041 22.382-22.382a.799.799 0 111.599 0c0 13.223-10.758 23.98-23.981 23.98z" />
      <path
         d="M32 51.584c-11.68 0-21.183-9.502-21.183-21.183 0-11.68 9.503-21.183 21.183-21.183s21.183 9.503 21.183 21.183S43.68 51.584 32 51.584zm0-40.767c-10.8 0-19.584 8.785-19.584 19.584 0 10.8 8.785 19.585 19.584 19.585 10.8 0 19.584-8.785 19.584-19.585 0-10.799-8.785-19.584-19.584-19.584z" />
   </g>
   <g fill="#fff">
      <path
         d="M38.469 28.43a.808.808 0 01-.81-.806c0-.446.356-.806.801-.806h.009a.805.805 0 110 1.612zM43.303 22.789a.808.808 0 01-.81-.806c0-.445.356-.806.8-.806h.01a.805.805 0 110 1.612zM46.528 22.789a.808.808 0 01-.81-.806c0-.445.357-.806.801-.806h.01a.805.805 0 110 1.612zM19.113 26.01a.808.808 0 01-.81-.806c0-.446.356-.806.801-.806h.01a.805.805 0 110 1.611zM20.723 33.263a.808.808 0 01-.81-.805c0-.446.357-.806.802-.806h.008a.805.805 0 110 1.611zM19.11 35.682a.808.808 0 01-.809-.806c0-.445.356-.805.8-.805h.01a.805.805 0 110 1.61zM17.498 38.102a.808.808 0 01-.81-.806c0-.445.356-.805.8-.805h.01a.805.805 0 110 1.61zM20.723 38.102a.808.808 0 01-.81-.806c0-.445.357-.805.802-.805h.008a.805.805 0 110 1.61zM20.723 23.596a.808.808 0 01-.81-.806c0-.445.357-.805.802-.805h.008a.805.805 0 110 1.61zM17.498 23.596a.808.808 0 01-.81-.806c0-.445.356-.805.8-.805h.01a.805.805 0 110 1.61zM32.027 23.593a.808.808 0 01-.81-.806c0-.445.357-.806.801-.806h.01a.805.805 0 110 1.612zM33.638 26.013a.808.808 0 01-.81-.806c0-.445.356-.806.8-.806h.01a.805.805 0 110 1.612zM35.248 23.596a.808.808 0 01-.81-.806c0-.445.356-.805.801-.805h.009a.805.805 0 110 1.61zM32.027 19.571a.808.808 0 01-.81-.806c0-.445.357-.805.801-.805h.01a.805.805 0 110 1.611zM33.638 17.154a.808.808 0 01-.81-.805c0-.446.356-.806.8-.806h.01a.805.805 0 110 1.611zM32.025 14.734a.808.808 0 01-.81-.806c0-.445.356-.805.8-.805h.01a.805.805 0 110 1.611zM35.248 19.573a.808.808 0 01-.81-.806c0-.446.356-.806.801-.806h.009a.805.805 0 110 1.612zM32.007 46.957a.808.808 0 01-.81-.805c0-.446.356-.806.801-.806h.009a.805.805 0 110 1.611zM32.007 42.122a.808.808 0 01-.81-.806c0-.445.356-.805.801-.805h.009a.805.805 0 110 1.61zM28.786 38.094a.808.808 0 01-.81-.806c0-.445.357-.805.801-.805h.01a.805.805 0 110 1.61zM27.176 35.677a.808.808 0 01-.81-.806c0-.445.356-.805.8-.805h.01a.805.805 0 110 1.61zM25.565 33.26a.808.808 0 01-.81-.806c0-.445.357-.805.801-.805h.01a.805.805 0 110 1.611zM23.955 30.843a.808.808 0 01-.81-.805c0-.446.356-.806.801-.806h.009a.805.805 0 110 1.611zM20.732 28.426a.808.808 0 01-.81-.805c0-.446.356-.806.8-.806h.01a.805.805 0 110 1.611zM30.397 44.54a.808.808 0 01-.81-.805c0-.446.356-.806.8-.806h.01a.805.805 0 110 1.611zM28.786 42.123a.808.808 0 01-.81-.805c0-.446.357-.806.801-.806h.01a.805.805 0 110 1.611zM23.952 38.097a.808.808 0 01-.81-.806c0-.445.357-.805.802-.805h.008a.805.805 0 110 1.611zM22.342 35.68a.808.808 0 01-.81-.805c0-.446.356-.806.801-.806h.009a.805.805 0 110 1.611zM32.007 38.097a.808.808 0 01-.81-.806c0-.445.356-.805.801-.805h.009a.805.805 0 110 1.611zM32.007 33.26a.808.808 0 01-.81-.806c0-.445.356-.805.801-.805h.009a.805.805 0 110 1.611zM30.397 30.843a.808.808 0 01-.81-.805c0-.446.356-.806.8-.806h.01a.805.805 0 110 1.611zM28.786 28.426a.808.808 0 01-.81-.805c0-.446.357-.806.801-.806h.01a.805.805 0 110 1.611zM27.176 26.01a.808.808 0 01-.81-.806c0-.446.356-.806.8-.806h.01a.805.805 0 110 1.611zM23.952 23.593a.808.808 0 01-.81-.806c0-.445.357-.806.802-.806h.008a.805.805 0 110 1.612zM30.397 35.68a.808.808 0 01-.81-.805c0-.446.356-.806.8-.806h.01a.805.805 0 110 1.611zM28.786 33.263a.808.808 0 01-.81-.805c0-.446.357-.806.801-.806h.01a.805.805 0 110 1.611zM25.565 28.43a.808.808 0 01-.81-.806c0-.446.357-.806.801-.806h.01a.805.805 0 110 1.612zM22.342 26.013a.808.808 0 01-.81-.806c0-.445.356-.806.801-.806h.009a.805.805 0 110 1.612zM32.007 28.43a.808.808 0 01-.81-.806c0-.446.356-.806.801-.806h.009a.805.805 0 110 1.612z" />
      <path
         d="M32.007 23.593a.808.808 0 01-.81-.806c0-.445.356-.806.801-.806h.009a.805.805 0 110 1.612zM30.397 26.013a.808.808 0 01-.81-.806c0-.445.356-.806.8-.806h.01a.805.805 0 110 1.612zM28.786 23.596a.808.808 0 01-.81-.806c0-.445.357-.805.801-.805h.01a.805.805 0 110 1.61zM32.007 19.571a.808.808 0 01-.81-.806c0-.445.356-.805.801-.805h.009a.805.805 0 110 1.611zM30.397 17.154a.808.808 0 01-.81-.805c0-.446.356-.806.8-.806h.01a.805.805 0 110 1.611zM32.01 14.734a.808.808 0 01-.81-.806c0-.445.356-.805.8-.805h.01a.805.805 0 110 1.611zM28.786 19.573a.808.808 0 01-.81-.806c0-.446.357-.806.801-.806h.01a.805.805 0 110 1.612zM27.176 30.846a.808.808 0 01-.81-.805c0-.446.356-.806.8-.806h.01a.805.805 0 110 1.611zM46.528 38.102a.808.808 0 01-.81-.806c0-.445.357-.805.801-.805h.01a.805.805 0 110 1.61zM43.303 38.102a.808.808 0 01-.81-.806c0-.445.356-.805.8-.805h.01a.805.805 0 110 1.61zM32.027 38.097a.808.808 0 01-.81-.806c0-.445.357-.805.801-.805h.01a.805.805 0 110 1.611zM32.027 33.26a.808.808 0 01-.81-.806c0-.445.357-.805.801-.805h.01a.805.805 0 110 1.611zM33.638 30.843a.808.808 0 01-.81-.805c0-.446.356-.806.8-.806h.01a.805.805 0 110 1.611zM35.248 28.426a.808.808 0 01-.81-.805c0-.446.356-.806.801-.806h.009a.805.805 0 110 1.611zM36.858 26.01a.808.808 0 01-.81-.806c0-.446.357-.806.802-.806h.008a.805.805 0 110 1.611zM40.082 22.787a.808.808 0 01-.81-.806c0-.445.356-.805.8-.805h.01a.805.805 0 110 1.611zM33.638 35.68a.808.808 0 01-.81-.805c0-.446.356-.806.8-.806h.01a.805.805 0 110 1.611zM35.248 33.263a.808.808 0 01-.81-.805c0-.446.356-.806.801-.806h.009a.805.805 0 110 1.611zM36.858 30.846a.808.808 0 01-.81-.805c0-.446.357-.806.802-.806h.008a.805.805 0 110 1.611zM41.692 25.205a.808.808 0 01-.81-.805c0-.446.357-.806.801-.806h.01a.805.805 0 110 1.611zM20.723 28.426a.808.808 0 01-.81-.805c0-.446.357-.806.802-.806h.008a.805.805 0 110 1.611zM36.858 35.677a.808.808 0 01-.81-.806c0-.445.357-.805.802-.805h.008a.805.805 0 110 1.61zM38.469 33.26a.808.808 0 01-.81-.806c0-.445.356-.805.801-.805h.009a.805.805 0 110 1.611zM40.08 30.843a.808.808 0 01-.81-.805c0-.446.356-.806.8-.806h.01a.805.805 0 110 1.611zM43.303 27.62a.808.808 0 01-.81-.805c0-.445.356-.806.8-.806h.01a.805.805 0 110 1.612zM44.913 25.204a.808.808 0 01-.81-.806c0-.445.356-.805.801-.805h.009a.805.805 0 110 1.61zM33.638 44.54a.808.808 0 01-.81-.805c0-.446.356-.806.8-.806h.01a.805.805 0 110 1.611zM35.248 42.123a.808.808 0 01-.81-.805c0-.446.356-.806.801-.806h.009a.805.805 0 110 1.611zM40.082 38.097a.808.808 0 01-.81-.806c0-.445.356-.805.8-.805h.01a.805.805 0 110 1.611zM41.692 35.68a.808.808 0 01-.81-.805c0-.446.357-.806.801-.806h.01a.805.805 0 110 1.611zM43.303 33.263a.808.808 0 01-.81-.805c0-.446.356-.806.8-.806h.01a.805.805 0 110 1.611zM44.915 35.682a.808.808 0 01-.81-.806c0-.445.357-.805.802-.805h.008a.805.805 0 110 1.61zM32.027 28.43a.808.808 0 01-.81-.806c0-.446.357-.806.801-.806h.01a.805.805 0 110 1.612zM32.027 46.957a.808.808 0 01-.81-.805c0-.446.357-.806.801-.806h.01a.805.805 0 110 1.611zM32.027 42.122a.808.808 0 01-.81-.806c0-.445.357-.805.801-.805h.01a.805.805 0 110 1.61zM35.248 38.094a.808.808 0 01-.81-.806c0-.445.356-.805.801-.805h.009a.805.805 0 110 1.61z" />
   </g>
</svg>