<svg width="48.028" height="48.028" viewBox="0 0 12.708 12.708" xmlns="http://www.w3.org/2000/svg">
  <g transform="matrix(.21259 0 0 .21299 -18.714 -18.766)">
    <path stroke="#4d5c6c" vector-effect="non-scaling-stroke"
      d="M139.85 118a21.86 21.86 0 00-21.86-21.86A21.86 21.86 0 0096.13 118a21.86 21.86 0 0021.86 21.86A21.86 21.86 0 00139.85 118" />
    <path fill="#3e3c3f"
      d="M141.92 117.99A23.92 23.92 0 01118 141.91a23.92 23.92 0 01-23.92-23.92A23.92 23.92 0 01118 94.07a23.92 23.92 0 0123.92 23.92zm-2.07.01a21.86 21.86 0 00-21.86-21.86A21.86 21.86 0 0096.13 118a21.86 21.86 0 0021.86 21.86A21.86 21.86 0 00139.85 118z" />
    <path fill="#3e3c3f"
      d="M133.91 117.99A15.91 15.91 0 01118 133.9a15.91 15.91 0 01-15.91-15.91A15.91 15.91 0 01118 102.08a15.91 15.91 0 0115.91 15.91zm-2.05.01A13.86 13.86 0 00118 104.14 13.86 13.86 0 00104.14 118 13.86 13.86 0 00118 131.86 13.86 13.86 0 00131.86 118z" />
    <path fill="#2f2b2a"
      d="M139.85 118a21.86 21.86 0 01-21.86 21.86A21.86 21.86 0 0196.13 118a21.86 21.86 0 0121.86-21.86A21.86 21.86 0 01139.85 118zm-5.94-.01A15.91 15.91 0 00118 102.08a15.91 15.91 0 00-15.91 15.91A15.91 15.91 0 00118 133.9a15.91 15.91 0 0015.91-15.91z" />
    <circle fill="#2f2b2a" cx="118" cy="118" r="13.86" />
  </g>
</svg>