<!-- icon666.com - MILLIONS vector ICONS FREE --><svg viewBox="-21 -53 682.66669 682" xmlns="http://www.w3.org/2000/svg"><path d="m40.527344 523.542969v30.347656c0 10.785156 8.746094 19.535156 19.53125 19.535156h518.5c10.792968 0 19.535156-8.75 19.535156-19.535156v-68.25h-557.566406zm0 0"></path><path d="m533.882812 200.023438-85.191406 132.941406-89.390625-193.347656c-12.15625 5.6875-25.703125 8.886718-39.988281 8.886718-14.289062 0-27.832031-3.199218-39.992188-8.886718l-89.390624 193.347656-84.789063-132.3125c-14.417969 8.875-31.371094 14.007812-49.507813 14.007812-5.140624 0-10.183593-.429687-15.105468-1.21875v233.132813h557.566406v-232.917969c-4.484375.652344-9.066406 1.003906-13.734375 1.003906-18.542969 0-35.851563-5.378906-50.476563-14.636718zm0 0"></path><path d="m319.3125 109.441406c30.679688 0 55.632812-24.960937 55.632812-55.640625 0-30.679687-24.953124-55.632812-55.632812-55.632812s-55.636719 24.953125-55.636719 55.632812c0 30.679688 24.957031 55.640625 55.636719 55.640625zm0 0"></path><path d="m584.367188 64.324219c-30.679688 0-55.640626 24.957031-55.640626 55.632812 0 30.679688 24.960938 55.636719 55.640626 55.636719 30.675781 0 55.632812-24.957031 55.632812-55.636719 0-30.675781-24.957031-55.632812-55.632812-55.632812zm0 0"></path><path d="m111.269531 119.957031c0-30.675781-24.957031-55.632812-55.636719-55.632812-30.675781 0-55.632812 24.957031-55.632812 55.632812 0 30.679688 24.957031 55.636719 55.632812 55.636719 30.679688 0 55.636719-24.957031 55.636719-55.636719zm0 0"></path></svg>