<!-- icon666.com - MILLIONS vector ICONS FREE --><svg clip-rule="evenodd" fill-rule="evenodd" image-rendering="optimizeQuality" shape-rendering="geometricPrecision" text-rendering="geometricPrecision" viewBox="0 0 403.59 403.59" xmlns="http://www.w3.org/2000/svg" xmlns:xodm="http://www.corel.com/coreldraw/odm/2003"><g id="Слой_x0020_1"><path d="m201.8 0c111.44 0 201.79 90.34 201.79 201.79s-90.35 201.8-201.79 201.8c-111.45 0-201.8-90.35-201.8-201.8s90.35-201.79 201.8-201.79zm0 30.35c-94.69 0-171.44 76.76-171.44 171.44 0 94.69 76.75 171.44 171.44 171.44s171.44-76.75 171.44-171.44c0-94.68-76.76-171.44-171.44-171.44zm0 83.66c-48.48 0-87.79 39.31-87.79 87.78 0 48.48 39.31 87.78 87.79 87.78s87.78-39.3 87.78-87.78-39.3-87.78-87.78-87.78zm0 30.35c-31.72 0-57.43 25.71-57.43 57.43s25.71 57.43 57.43 57.43 57.42-25.71 57.42-57.43-25.71-57.43-57.42-57.43z"></path></g></svg>