<svg clip-rule="evenodd" fill-rule="evenodd" image-rendering="optimizeQuality" shape-rendering="geometricPrecision"
   text-rendering="geometricPrecision" viewBox="0 0 398 398" xmlns="http://www.w3.org/2000/svg">
   <circle cx="201.795" cy="201.795" r="145.025" fill="#ebebeb" />
   <path
      d="M201.8 32.054c93.738 0 169.736 75.99 169.736 169.737s-75.998 169.745-169.737 169.745c-93.747 0-169.745-75.998-169.745-169.745S108.052 32.054 201.8 32.054zm0 25.53c-79.65 0-144.208 64.566-144.208 144.207 0 79.649 64.558 144.207 144.207 144.207 79.65 0 144.208-64.558 144.208-144.207 0-79.64-64.567-144.208-144.208-144.208zm0 70.37c-40.78 0-73.846 33.066-73.846 73.837 0 40.779 33.066 73.836 73.845 73.836 40.78 0 73.837-33.057 73.837-73.836 0-40.78-33.058-73.837-73.837-73.837zm0 25.53c-26.682 0-48.308 21.625-48.308 48.307 0 26.681 21.626 48.307 48.307 48.307 26.682 0 48.3-21.626 48.3-48.307 0-26.682-21.627-48.308-48.3-48.308z" />
</svg>