<svg clip-rule="evenodd" fill-rule="evenodd" image-rendering="optimizeQuality" shape-rendering="geometricPrecision"
  text-rendering="geometricPrecision" viewBox="0 0 398 398" xmlns="http://www.w3.org/2000/svg">
  <circle cx="201.795" cy="201.795" r="145.025" fill="#ebebeb" />
  <path
    d="M201.8 32.054c93.738 0 169.736 75.99 169.736 169.737s-75.998 169.745-169.737 169.745c-93.747 0-169.745-75.998-169.745-169.745S108.052 32.054 201.8 32.054zm0 25.53c-79.65 0-144.208 64.566-144.208 144.207 0 79.649 64.558 144.207 144.207 144.207 79.65 0 144.208-64.558 144.208-144.207 0-79.64-64.567-144.208-144.208-144.208z" />
  <path
    d="M107.505 282.007v10.24c0 3.638 2.95 6.59 6.59 6.59h174.934a6.59 6.59 0 006.591-6.59v-23.028H107.505zm0 0M273.956 172.856l-28.742 44.853-30.16-65.233a31.753 31.753 0 01-13.491 2.998c-4.82 0-9.39-1.08-13.493-2.998l-30.159 65.233-28.607-44.64a31.763 31.763 0 01-16.703 4.725 32.17 32.17 0 01-5.096-.41v78.655H295.62v-78.583a32.16 32.16 0 01-4.634.338 31.74 31.74 0 01-17.03-4.938zm0 0M201.563 142.295c10.35 0 18.77-8.421 18.77-18.772 0-10.351-8.42-18.77-18.77-18.77s-18.771 8.419-18.771 18.77c0 10.35 8.42 18.772 18.771 18.772zm0 0M290.989 127.073c-10.351 0-18.773 8.42-18.773 18.77s8.422 18.771 18.773 18.771c10.35 0 18.77-8.42 18.77-18.771 0-10.35-8.42-18.77-18.77-18.77zm0 0M131.372 145.843c0-10.35-8.42-18.77-18.77-18.77s-18.77 8.42-18.77 18.77 8.42 18.771 18.77 18.771 18.77-8.42 18.77-18.771zm0 0" />
</svg>