<svg width="48.028" height="48.028" viewBox="0 0 12.708 12.708" xmlns="http://www.w3.org/2000/svg">
  <g transform="translate(-2.647 -2.65) scale(.21442)">
    <circle fill="#2f2b2a" cx="42" cy="41.99" r="17.085" />
    <path fill="#2f2b2a"
      d="M64.358 42.071c0 12.051-10.409 22.095-22.46 22.095-12.05 0-22.276-10.044-22.276-22.095 0-12.05 10.317-22.368 22.368-22.368 12.05 0 22.368 10.318 22.368 22.368zm-6.418-.081c0-8.803-7.137-15.94-15.94-15.94s-15.94 7.137-15.94 15.94S33.197 57.93 42 57.93s15.94-7.137 15.94-15.94z" />
    <path fill="#3e3c3f"
      d="M61.629 41.99A19.649 19.684 0 0141.98 61.674 19.649 19.684 0 0122.331 41.99 19.649 19.684 0 0141.98 22.306 19.649 19.684 0 0161.629 41.99zm-2.577 0A17.072 17.103 0 0041.98 24.887 17.072 17.103 0 0024.908 41.99 17.072 17.103 0 0041.98 59.093 17.072 17.103 0 0059.052 41.99z" />
    <path fill="#3e3c3f"
      d="M65.81 41.99a23.83 23.83 0 01-23.83 23.83 23.83 23.83 0 01-23.83-23.83 23.83 23.83 0 0123.83-23.83 23.83 23.83 0 0123.83 23.83zm-2-.01a21.82 21.82 0 00-21.82-21.82 21.82 21.82 0 00-21.82 21.82A21.82 21.82 0 0041.99 63.8a21.82 21.82 0 0021.82-21.82z" />
  </g>
  <path fill="#939393"
    d="M8.338 8.935q-1.846.044-3.701.008c-.28-.007-.43-.127-.426-.41l.006-.249q.003-.058.061-.058l4.155.012q.045 0 .053.043.078.348-.148.654zm.33-2.1l-.18.87a.087.087 0 01-.085.07l-4.115-.008q-.052 0-.063-.05l-.228-1.054-.17-.764q-.01-.045-.055-.041-.354.025-.46-.275c-.273-.793 1.16-.95.814.092q-.015.047.025.081l.97.804a.052.054 33.1 00.08-.016l.932-1.86q.02-.04-.016-.064c-.663-.482.237-1.244.619-.66q.226.354-.137.66-.038.029-.015.072l.938 1.867q.021.04.056.01l.964-.802a.092.09 63.2 00.03-.094q-.147-.548.27-.712c.535-.212.966.77.075.918q-.046.009-.056.052z" />
</svg>