<svg width="48.028" height="48.028" viewBox="0 0 12.708 12.708" xmlns="http://www.w3.org/2000/svg">
   <g transform="translate(-2.62 -2.622) scale(.21433)">
      <path fill="#fff"
         d="M63.81 41.98A21.82 21.82 0 0141.99 63.8a21.82 21.82 0 01-21.82-21.82 21.82 21.82 0 0121.82-21.82 21.82 21.82 0 0121.82 21.82zm-5.87.01A15.94 15.94 0 0042 26.05a15.94 15.94 0 00-15.94 15.94A15.94 15.94 0 0042 57.93a15.94 15.94 0 0015.94-15.94z" />
      <path fill="#c5d4dd"
         d="M57.94 41.99A15.94 15.94 0 0142 57.93a15.94 15.94 0 01-15.94-15.94A15.94 15.94 0 0142 26.05a15.94 15.94 0 0115.94 15.94zm-2.09 0A13.85 13.85 0 0042 28.14a13.85 13.85 0 00-13.85 13.85A13.85 13.85 0 0042 55.84a13.85 13.85 0 0013.85-13.85z" />
      <circle fill="#fff" cx="42" cy="41.99" r="13.85" />
      <path fill="#c5d4dd"
         d="M65.81 41.99a23.83 23.83 0 01-23.83 23.83 23.83 23.83 0 01-23.83-23.83 23.83 23.83 0 0123.83-23.83 23.83 23.83 0 0123.83 23.83zm-2-.01a21.82 21.82 0 00-21.82-21.82 21.82 21.82 0 00-21.82 21.82A21.82 21.82 0 0041.99 63.8a21.82 21.82 0 0021.82-21.82z" />
   </g>
</svg>